<?xml version="1.0" encoding="utf-8"?>
<!-- Generator: Adobe Illustrator 22.0.0, SVG Export Plug-In . SVG Version: 6.00 Build 0)  -->
<svg version="1.1" id="Layer_1" xmlns="http://www.w3.org/2000/svg" xmlns:xlink="http://www.w3.org/1999/xlink" x="0px" y="0px"
	 viewBox="0 0 800 800" style="enable-background:new 0 0 800 800;" xml:space="preserve">
<style type="text/css">
	.st0{fill:#4E338F;}
	.st1{fill:#FFFFFF;}
	.st2{fill:#212121;}
	.st3{fill:#5B5C5F;}
	.st4{fill:#CFD3D4;}
</style>
<circle class="st0" cx="400" cy="400" r="395"/>
<g>
	<path class="st1" d="M543.6,575.3c0,54.5-67.4,54.5-112.3,54.5h-62.7c-44.9,0-112.3,0-112.3-54.5V224.7
		c0-54.5,67.4-54.5,112.3-54.5h62.7c44.9,0,112.3,0,112.3,54.5V575.3z"/>
	<polygon class="st2" points="522.1,572.4 277.9,572.4 277.9,227.6 522.1,227.2 	"/>
	<polygon class="st3" points="277.9,572.4 277.9,227.6 522.1,227.2 	"/>
	<path class="st2" d="M491.4,204.3c0,5.1-4.1,9.2-9.2,9.2c-5.1,0-9.2-4.1-9.2-9.2c0-5.1,4.1-9.2,9.2-9.2
		C487.2,195,491.4,199.2,491.4,204.3z"/>
	<path class="st4" d="M428.7,601.8c0,4-3.2,7.2-7.2,7.2h-43.1c-4,0-7.2-3.2-7.2-7.2c0-4,3.2-7.2,7.2-7.2h43.1
		C425.5,594.6,428.7,597.8,428.7,601.8z"/>
	<rect x="371.3" y="192.6" class="st4" width="57.5" height="14.4"/>
</g>
</svg>
