<?xml version="1.0" encoding="utf-8"?>
<!-- Generator: Adobe Illustrator 22.0.0, SVG Export Plug-In . SVG Version: 6.00 Build 0)  -->
<svg version="1.1" id="Layer_1" xmlns="http://www.w3.org/2000/svg" xmlns:xlink="http://www.w3.org/1999/xlink" x="0px" y="0px"
	 viewBox="0 0 776.7 172" style="enable-background:new 0 0 776.7 172;" xml:space="preserve">
<style type="text/css">
	.st0{enable-background:new    ;}
	.st1{fill:#7F5AC2;}
	.st2{fill:#884A9A;}
	.st3{font-family:'HelveticaNeue-Light';}
	.st4{font-size:161px;}
	.st5{letter-spacing:-13;}
	.st6{fill:#4F3190;}
</style>
<g class="st0">
	<path class="st1" d="M31.5,31.1l67,97.2h0.3V31.1h10.9v115H97.5l-67-97.2h-0.3v97.2H19.3v-115H31.5z"/>
</g>
<g class="st0">
	<path class="st1" d="M113.3,31.1h12.9L164,89.4l37.7-58.3h13l-45.4,67.6v47.3h-10.9V98.7L113.3,31.1z"/>
	<path class="st1" d="M292.1,54.1c-2.2-3.5-4.9-6.4-8-8.8c-3.2-2.4-6.7-4.2-10.5-5.4c-3.8-1.2-7.8-1.9-12-1.9
		c-7.6,0-14.2,1.4-19.6,4.3c-5.5,2.9-10,6.7-13.4,11.5c-3.5,4.8-6.1,10.2-7.7,16.2c-1.7,6-2.5,12.2-2.5,18.5
		c0,6.2,0.8,12.4,2.5,18.4c1.7,6.1,4.2,11.5,7.7,16.3c3.5,4.8,8,8.6,13.4,11.5s12,4.3,19.6,4.3c5.4,0,10.2-1,14.5-2.9
		c4.3-1.9,8-4.6,11.1-7.9c3.1-3.3,5.6-7.2,7.6-11.7c1.9-4.5,3.2-9.3,3.7-14.4h10.9c-0.8,7.1-2.4,13.5-5,19.2
		c-2.6,5.7-5.9,10.5-10,14.5c-4.1,4-8.9,7-14.4,9.2c-5.5,2.1-11.7,3.2-18.4,3.2c-9,0-16.9-1.6-23.7-4.9c-6.8-3.3-12.5-7.6-17-13.1
		c-4.5-5.5-7.9-11.8-10.1-19c-2.3-7.2-3.4-14.8-3.4-22.7c0-7.9,1.1-15.5,3.4-22.7c2.3-7.2,5.6-13.5,10.1-19.1
		c4.5-5.5,10.2-9.9,17-13.2c6.8-3.3,14.7-4.9,23.7-4.9c5.5,0,10.8,0.8,16,2.4c5.2,1.6,9.9,4,14.2,7.2c4.2,3.2,7.8,7.1,10.6,11.7
		c2.8,4.6,4.6,9.9,5.4,15.9h-10.9C295.8,61.5,294.3,57.5,292.1,54.1z"/>
</g>
<text transform="matrix(1 0 0 1 302.3241 146.063)" class="st2 st3 st4 st5"> </text>
<g class="st0">
	<path class="st6" d="M368.9,31.1v44.1h46.5V31.1h25.3v115h-25.3V96.5h-46.5v49.6h-25.3v-115H368.9z"/>
	<path class="st6" d="M455.8,65.2c2.6-7.4,6.3-13.8,11.1-19.2c4.8-5.5,10.8-9.8,17.8-12.9c7-3.1,14.9-4.7,23.7-4.7
		c8.9,0,16.8,1.6,23.8,4.7c7,3.1,12.9,7.4,17.7,12.9c4.8,5.5,8.5,11.9,11.1,19.2c2.6,7.4,3.9,15.3,3.9,23.9c0,8.4-1.3,16.2-3.9,23.4
		c-2.6,7.2-6.3,13.6-11.1,18.9c-4.8,5.4-10.7,9.6-17.7,12.6c-7,3.1-14.9,4.6-23.8,4.6c-8.8,0-16.7-1.5-23.7-4.6
		c-7-3.1-13-7.3-17.8-12.6c-4.8-5.4-8.5-11.7-11.1-18.9c-2.6-7.2-3.9-15.1-3.9-23.4C452,80.5,453.3,72.5,455.8,65.2z M479,103.2
		c1.1,4.6,2.9,8.7,5.4,12.3c2.5,3.7,5.7,6.6,9.7,8.8c4,2.2,8.8,3.3,14.5,3.3c5.7,0,10.5-1.1,14.5-3.3c4-2.2,7.2-5.1,9.7-8.8
		c2.5-3.6,4.3-7.8,5.4-12.3c1.1-4.6,1.7-9.3,1.7-14.1c0-5-0.6-9.9-1.7-14.6c-1.1-4.7-2.9-8.9-5.4-12.6c-2.5-3.7-5.7-6.7-9.7-8.9
		c-4-2.2-8.8-3.3-14.5-3.3c-5.7,0-10.5,1.1-14.5,3.3c-4,2.2-7.2,5.2-9.7,8.9c-2.5,3.7-4.3,7.9-5.4,12.6c-1.1,4.7-1.7,9.6-1.7,14.6
		C477.3,93.9,477.8,98.6,479,103.2z"/>
	<path class="st6" d="M628.1,31.1c7.2,0,13.3,1,18.4,3.1c5,2.1,9.1,4.9,12.3,8.3c3.2,3.4,5.5,7.4,6.9,11.8c1.4,4.4,2.2,9,2.2,13.7
		c0,4.6-0.7,9.2-2.2,13.6c-1.4,4.5-3.8,8.4-6.9,11.8c-3.2,3.4-7.3,6.2-12.3,8.3c-5,2.1-11.2,3.1-18.4,3.1h-26.6v41.2h-25.3v-115
		H628.1z M621.2,85.2c2.9,0,5.7-0.2,8.4-0.6c2.7-0.4,5-1.3,7.1-2.5c2-1.2,3.7-3,4.9-5.2c1.2-2.3,1.9-5.2,1.9-8.9
		c0-3.6-0.6-6.6-1.9-8.9c-1.2-2.3-2.9-4-4.9-5.2c-2-1.2-4.4-2.1-7.1-2.5c-2.7-0.4-5.5-0.6-8.4-0.6h-19.6v34.5H621.2z"/>
	<path class="st6" d="M763.7,31.1v21.3H703V77h55.7v19.6H703v28.2h62v21.3h-87.3v-115H763.7z"/>
</g>
</svg>
